<!--?xml version="1.0" standalone="no"?-->
              <svg id="sw-js-blob-svg" viewBox="0 0 100 100" xmlns="http://www.w3.org/2000/svg" version="1.1">
                    <defs> 
                        <linearGradient id="sw-gradient" x1="0" x2="1" y1="1" y2="0">
                            <stop id="stop1" stop-color="rgba(255, 255, 255, 1)" offset="0%"></stop>
                            <stop id="stop2" stop-color="rgba(255, 255, 255, 1)" offset="100%"></stop>
                        </linearGradient>
                    </defs>
                <path fill="none" d="M16.2,-28.9C21.4,-25,26.4,-21.6,31.5,-16.8C36.6,-12.1,42,-6,42.6,0.4C43.2,6.8,39.2,13.6,34.6,19.2C30,24.8,24.8,29.3,18.9,33.5C13,37.6,6.5,41.4,-0.7,42.6C-7.9,43.8,-15.8,42.5,-22.2,38.7C-28.6,34.8,-33.5,28.5,-37.8,21.6C-42.1,14.8,-45.8,7.4,-44.5,0.8C-43.1,-5.8,-36.6,-11.6,-32.3,-18.5C-28,-25.4,-25.9,-33.3,-20.9,-37.3C-15.9,-41.3,-7.9,-41.4,-1.2,-39.3C5.5,-37.1,11,-32.8,16.2,-28.9Z" width="100%" height="100%" transform="translate(50 50)" stroke-width="1" style="transition: all 0.3s ease 0s;" stroke="url(#sw-gradient)"></path>
              </svg>