<?xml version="1.0" encoding="iso-8859-1"?>
<!-- Uploaded to: SVG Repo, www.svgrepo.com, Generator: SVG Repo Mixer Tools -->
<svg fill="#000000" height="800px" width="800px" version="1.1" id="Layer_1" xmlns="http://www.w3.org/2000/svg" xmlns:xlink="http://www.w3.org/1999/xlink" 
	 viewBox="0 0 512 512" xml:space="preserve">
<g>
	<g>
		<path d="M231.472,241.277L31.195,95.621c-5.539-4.036-13.993-4.605-20.11-1.493C4.979,97.221,0,103.498,0,110.343v291.312
			c0,6.845,4.979,13.122,11.086,16.216c2.605,1.333,6.01,1.991,8.828,1.991c3.778,0,7.824-1.173,10.997-3.485L231.33,270.721
			c4.703-3.432,7.565-8.89,7.565-14.722C238.896,250.167,236.175,244.708,231.472,241.277z M36.414,365.899v-219.8l151.114,109.9
			L36.414,365.899z"/>
	</g>
</g>
<g>
	<g>
		<path d="M504.577,241.277L304.3,95.621c-5.529-4.036-14.002-4.605-20.11-1.493c-6.107,3.094-11.086,9.37-11.086,16.216v291.312
			c0,6.845,4.979,13.122,11.086,16.216c2.605,1.333,6.01,1.991,8.828,1.991c3.778,0,7.824-1.173,10.997-3.485l200.419-145.656
			c4.703-3.432,7.565-8.89,7.565-14.722C512,250.167,509.279,244.708,504.577,241.277z M309.518,365.899v-219.8l151.114,109.9
			L309.518,365.899z"/>
	</g>
</g>
</svg>